<svg width="45" height="60" viewBox="0 0 45 60" fill="none" xmlns="http://www.w3.org/2000/svg">
<g clip-path="url(#clip0_148_653)">
<path d="M37.5709 31.3572C35.4051 30.447 33.196 29.9726 30.8903 30.0213C27.2987 30.0969 24.0604 31.1964 21.2378 33.4393C20.8702 33.7312 20.5323 33.817 20.0802 33.7359C16.7197 33.1331 13.3409 33.0946 9.94789 33.421C9.67083 33.4474 9.29375 33.298 9.08967 33.1C4.81617 28.9603 3.0369 23.8556 3.35112 17.9779C3.78564 9.85322 9.48296 2.82532 17.3333 0.680462C28.4218 -2.34762 39.909 5.06073 41.6011 16.4182C42.4195 21.9135 41.0348 26.8959 37.5709 31.3572ZM28.8428 10.306C28.786 9.65928 28.4907 9.33289 27.9853 9.20382C27.3771 9.04839 27.0189 9.38154 26.7405 9.86336C23.3203 15.7907 19.9005 21.7175 16.4811 27.6439C16.0696 28.3575 16.1811 28.9171 16.7649 29.2617C17.3488 29.6063 17.9137 29.4252 18.3192 28.7252C21.743 22.8014 25.1624 16.8746 28.5772 10.9446C28.709 10.7195 28.7799 10.4614 28.8428 10.306ZM20.8878 13.0421C20.7148 12.4035 20.6175 11.7345 20.3546 11.1345C19.8086 9.87485 18.7794 9.18422 17.4184 9.17476C16.0574 9.1653 15.0276 9.84376 14.4451 11.0878C13.7565 12.561 13.8058 14.0416 14.664 15.4309C14.9181 15.846 15.2636 16.1976 15.6742 16.4589C16.0847 16.7202 16.5495 16.8843 17.0332 16.9387C17.5168 16.9931 18.0064 16.9364 18.4648 16.7729C18.9232 16.6094 19.3382 16.3434 19.6781 15.9952C20.4674 15.1863 20.7749 14.1815 20.8878 13.0421ZM31.187 25.4991C31.0187 24.8821 30.9235 24.2327 30.6667 23.6556C30.1024 22.3886 29.0982 21.6777 27.6845 21.6729C26.2411 21.6682 25.1842 22.3771 24.6686 23.6914C24.3808 24.4344 24.2532 25.2298 24.2943 26.0255C24.4044 27.85 25.6951 29.2056 27.2852 29.3604C29.4395 29.5699 31.0924 27.9048 31.187 25.4991Z" fill="#FFCD01"/>
<path d="M31.225 32.1418C38.901 32.1567 45.0105 38.4527 44.9963 46.3368C44.9848 53.833 38.7489 60.023 31.2311 60C23.3396 59.9757 17.1422 53.7539 17.1685 45.8813C17.1935 38.3892 23.6004 32.1276 31.225 32.1418ZM29.9742 39.957C29.8993 39.9846 29.8231 40.0086 29.7458 40.0286C27.7739 40.4003 26.5562 41.9207 26.7238 43.8054C26.9042 45.8381 28.2888 47.1166 30.3587 47.1524C30.8716 47.1612 31.3852 47.1416 31.8974 47.1585C32.7488 47.1876 33.3091 47.716 33.3537 48.5101C33.4003 49.3446 32.8935 49.9291 32.0143 50.0413C31.7924 50.0625 31.5695 50.0702 31.3467 50.0643C30.187 50.0643 29.0274 50.069 27.8678 50.0643C27.3826 50.0643 26.9894 50.1994 26.7866 50.6833C26.4663 51.4395 26.9387 52.151 27.8334 52.1963C28.5389 52.2315 29.2477 52.2031 29.987 52.2031C30.008 52.5619 29.9918 52.8525 30.0472 53.1289C30.1485 53.635 30.4526 53.9688 30.9932 54.0195C31.494 54.0668 31.8717 53.8526 32.0636 53.3931C32.1528 53.1762 32.1663 52.9133 32.1549 52.6741C32.138 52.3227 32.2495 52.1794 32.6171 52.1017C34.5241 51.6963 35.6641 50.142 35.4762 48.2634C35.2857 46.3591 33.8882 45.0698 31.9447 45.0157C31.3656 44.9995 30.7837 45.0333 30.206 45.0008C29.2045 44.9447 28.6173 44.0595 28.922 43.1047C29.1376 42.4289 29.6154 42.1221 30.552 42.112C31.8677 42.0978 33.1834 42.1153 34.4991 42.0944C35.1032 42.0849 35.4384 41.7261 35.4951 41.1328C35.5519 40.5395 35.2005 40.1036 34.5971 40.007C34.3096 39.9729 34.0201 39.9598 33.7307 39.9678C33.2259 39.9624 32.7218 39.9678 32.2332 39.9678C32.0481 38.5156 31.8143 38.1527 31.1122 38.1432C30.3722 38.1365 30.1208 38.5291 29.9742 39.957Z" fill="#FFCD01"/>
<path d="M18.7772 35.6774C15.8127 40.3529 15.8127 40.3529 14.9714 45.9455C13.5448 45.9455 12.1203 46.0266 10.708 45.928C8.20769 45.7536 5.74387 45.336 3.43074 44.3264C2.6326 43.9852 1.88627 43.5336 1.21358 42.985C-0.446088 41.5984 -0.369053 39.6434 1.33859 38.3182C2.63199 37.3147 4.1511 36.7951 5.70535 36.3748C9.98493 35.2165 14.322 35.1428 18.7772 35.6774Z" fill="#FFCD01"/>
<path d="M18.8184 56.511C13.6306 57.0327 8.61443 56.9489 3.74897 55.1791C3.22865 54.9826 2.72533 54.7437 2.24405 54.4649C0.649931 53.5641 -0.285995 52.2977 0.0816177 50.3502C0.0951328 50.3461 0.149193 50.313 0.17352 50.3285C2.82858 52.1828 5.87288 52.9174 9.0111 53.2654C11.0424 53.4911 13.113 53.6654 15.1409 53.5181C16.4573 53.4222 17.1736 53.7039 17.6791 54.8804C17.9149 55.4359 18.3771 55.8954 18.8184 56.511Z" fill="#FFCD01"/>
<path d="M0.0810324 44.886C4.68431 48.0053 9.88833 48.1161 15.1174 48.2486L15.8749 51.43C14.9058 51.43 13.9787 51.453 13.0529 51.426C10.1289 51.3415 7.22584 51.0658 4.44914 50.0745C3.51457 49.742 2.61175 49.2811 1.75489 48.7763C0.308089 47.9262 -0.176432 46.5923 0.0810324 44.886Z" fill="#FFCD01"/>
<path d="M28.8428 10.306C28.7799 10.4608 28.7076 10.7196 28.5792 10.9446C25.1648 16.8737 21.7455 22.8006 18.3212 28.7252C17.9158 29.4253 17.3468 29.6037 16.767 29.2618C16.1872 28.9198 16.0716 28.3576 16.4831 27.644C19.8998 21.7153 23.3196 15.7885 26.7425 9.8634C27.0209 9.38159 27.3818 9.04844 27.9873 9.20386C28.4907 9.33293 28.786 9.65932 28.8428 10.306Z" fill="white"/>
<path d="M20.888 13.0422C20.7751 14.1815 20.4676 15.1864 19.6797 15.9946C19.3397 16.3428 18.9247 16.6088 18.4664 16.7723C18.008 16.9358 17.5183 16.9925 17.0347 16.9381C16.5511 16.8836 16.0863 16.7195 15.6757 16.4582C15.2652 16.1969 14.9197 15.8454 14.6656 15.4303C13.8074 14.0409 13.758 12.5604 14.4466 11.0872C15.0278 9.84312 16.0583 9.16399 17.42 9.17412C18.7816 9.18426 19.8101 9.87489 20.3561 11.1338C20.615 11.7346 20.715 12.4036 20.888 13.0422ZM18.6492 13.0699C18.6532 12.0643 18.1248 11.3176 17.4004 11.3048C16.6956 11.2926 16.1239 12.0745 16.1205 13.055C16.1171 14.0355 16.6793 14.812 17.3869 14.8201C18.1086 14.8255 18.6458 14.0815 18.6492 13.0699Z" fill="white"/>
<path d="M31.1869 25.4991C31.0923 27.9048 29.4394 29.5699 27.285 29.3604C25.695 29.2056 24.4043 27.8507 24.2941 26.0255C24.2531 25.2298 24.3807 24.4344 24.6685 23.6914C25.1841 22.3771 26.241 21.6682 27.6844 21.6729C29.0981 21.6777 30.1023 22.3886 30.6665 23.6556C30.9233 24.2327 31.0186 24.8821 31.1869 25.4991ZM26.362 25.5606C26.414 25.7978 26.4444 26.089 26.543 26.356C26.7329 26.8709 27.0783 27.2344 27.6702 27.2344C28.2622 27.2344 28.6541 26.8783 28.7825 26.3485C28.8964 25.8794 28.9179 25.3926 28.846 24.9152C28.7474 24.3111 28.394 23.8421 27.7013 23.8036C27.1242 23.7718 26.6721 24.1881 26.4741 24.9152C26.4221 25.1099 26.4045 25.3106 26.362 25.5606Z" fill="white"/>
<path d="M29.974 39.957C30.1206 38.5291 30.372 38.1365 31.1119 38.1426C31.814 38.1487 32.0479 38.5116 32.233 39.9671C32.7216 39.9671 33.2257 39.9631 33.7305 39.9671C34.0198 39.9592 34.3094 39.9723 34.5968 40.0063C35.2003 40.103 35.551 40.5469 35.4949 41.1321C35.4388 41.7174 35.103 42.0843 34.4988 42.0937C33.1831 42.1147 31.8674 42.0938 30.5517 42.1113C29.6151 42.1215 29.1374 42.4249 28.9218 43.104C28.6184 44.0589 29.2056 44.9441 30.2057 45.0002C30.7835 45.0326 31.3653 45.0002 31.9445 45.0151C33.888 45.0691 35.2854 46.3585 35.476 48.2628C35.6639 50.1414 34.5238 51.6949 32.6169 52.1011C32.2492 52.1788 32.1377 52.322 32.1546 52.6734C32.1661 52.9127 32.1546 53.1755 32.0634 53.3925C31.8742 53.852 31.4937 54.0682 30.993 54.0189C30.4524 53.9682 30.149 53.6344 30.0469 53.1282C29.9915 52.8518 30.0077 52.5613 29.9868 52.2024C29.2475 52.2024 28.5386 52.2308 27.8332 52.1957C26.9384 52.1504 26.4661 51.4388 26.7864 50.6826C26.9891 50.2015 27.3804 50.0616 27.8676 50.0637C29.0272 50.0684 30.1868 50.0637 31.3464 50.0637C31.5692 50.0695 31.7922 50.0619 32.0141 50.0407C32.8926 49.9299 33.4001 49.344 33.3534 48.5094C33.3088 47.7181 32.7452 47.1897 31.8972 47.1579C31.3849 47.141 30.8714 47.1579 30.3585 47.1518C28.2886 47.1153 26.904 45.8375 26.7236 43.8048C26.556 41.9201 27.7737 40.3996 29.7455 40.028C29.8228 40.0081 29.8991 39.9845 29.974 39.957Z" fill="white"/>
<path d="M18.6488 13.0698C18.6488 14.0835 18.1082 14.8268 17.3865 14.8201C16.679 14.8147 16.1174 14.0315 16.1201 13.055C16.1228 12.0785 16.6952 11.2926 17.4 11.3048C18.1244 11.3176 18.6529 12.0643 18.6488 13.0698Z" fill="#FFCD01"/>
<path d="M26.3618 25.5606C26.4044 25.3106 26.422 25.1099 26.474 24.9186C26.672 24.1915 27.1241 23.7752 27.7012 23.807C28.3938 23.8455 28.7472 24.3145 28.8459 24.9186C28.9178 25.396 28.8962 25.8828 28.7824 26.3519C28.654 26.8817 28.2621 27.2371 27.6701 27.2378C27.0781 27.2385 26.7328 26.8709 26.5429 26.3593C26.4443 26.089 26.4138 25.8012 26.3618 25.5606Z" fill="#FFCD01"/>
</g>
<defs>
<clipPath id="clip0_148_653">
<rect width="44.9961" height="60" fill="white"/>
</clipPath>
</defs>
</svg>
